<?xml version="1.0" encoding="utf-8"?>
<!-- Generator: Adobe Illustrator 23.0.2, SVG Export Plug-In . SVG Version: 6.00 Build 0)  -->
<svg version="1.1" id="레이어_1" xmlns="http://www.w3.org/2000/svg" xmlns:xlink="http://www.w3.org/1999/xlink" x="0px"
	 y="0px" viewBox="0 0 141.73 141.73" style="enable-background:new 0 0 141.73 141.73;" xml:space="preserve">
<style type="text/css">
	.st0{fill:#FFFFFF;}
	.st1{fill:#E55926;}
</style>
<g>
	<path class="st0" d="M91.33,31v11.26H83.2c-1.46,0-3.83,0.5-4.77,1.49c-0.94,0.99-1.41,2.37-1.41,4.14v9.91h14.31l-1.17,11.26
		H77.02v41.67H63.1V69.06H50.4V57.8H63.1V46.17c0-4.38,0.31-8,3.28-10.87c2.97-2.87,7.01-4.3,12.12-4.3H91.33z"/>
</g>
<circle class="st1" cx="70.44" cy="70.97" r="70.76"/>
<path class="st0" d="M107.28,35.25H34.63c-3.03,0-5.51,2.48-5.51,5.51V111c0,3.03,2.48,5.51,5.51,5.51h72.65
	c3.03,0,5.51-2.48,5.51-5.51V40.76C112.79,37.73,110.31,35.25,107.28,35.25z M70.95,58.83c9.41,0,17.04,7.63,17.04,17.04
	c0,9.41-7.63,17.04-17.04,17.04c-9.41,0-17.04-7.63-17.04-17.04C53.91,66.47,61.54,58.83,70.95,58.83z M104.53,108.62
	c0,0.92-0.75,1.67-1.67,1.67H39.05c-0.92,0-1.67-0.75-1.67-1.67V72.64c0-0.92,0.75-1.67,1.67-1.67H47
	c-0.32,1.59-0.49,3.23-0.49,4.91c0,13.5,10.95,24.45,24.45,24.45c13.5,0,24.45-10.95,24.45-24.45c0-1.68-0.17-3.32-0.49-4.91h7.95
	c0.92,0,1.67,0.75,1.67,1.67V108.62z M104.53,58.15c0,0.93-0.76,1.68-1.68,1.68H88.91c-0.93,0-1.68-0.76-1.68-1.68V44.71
	c0-0.93,0.76-1.68,1.68-1.68h13.94c0.93,0,1.68,0.76,1.68,1.68V58.15z"/>
</svg>
